# xmcd
# Track frame offsets:
# 150
# 16092
# 25795
# 41350
# 52232
# 63402
# 74727
# 93162
# 103270
# 114447
# 124287
# 137997
# 153162
# 160302
# 180540
# 192265
# 201257
# 215187
#
# Disc length: 3181 seconds
# Revision: 0
# Processed by: cddbd v1.4PL0 Copyright (c) Steve Scherf et al.
# Submitted via: VisiTrax 2.9.5.180 - For more info visit www.synapsa.com
#
DISCID=0a0c6b12
DTITLE=Kim Doolittle - Better off blue
DYEAR=1900
DGENRE=
TTITLE0=He's gonna break your heart
TTITLE1=Right above ready
TTITLE2=Love breakdopwn
TTITLE3=In care of the blues
TTITLE4=Honey I can't even sing the blues
TTITLE5=Country boy
TTITLE6=Better off blue
TTITLE7=Love was a good thing
TTITLE8=Dry bread
TTITLE9=Unbearably blue
TTITLE10=My feet don'r fit that line
TTITLE11=What in the name of love
TTITLE12=Rockin' your memory to sleep
TTITLE13=In a love like mine
TTITLE14=Bocephus
TTITLE15=Fool enough to let you
TTITLE16=Tired and true
TTITLE17=Shotgun
EXTD=
EXTT0=
EXTT1=
EXTT2=
EXTT3=
EXTT4=
EXTT5=
EXTT6=
EXTT7=
EXTT8=
EXTT9=
EXTT10=
EXTT11=
EXTT12=
EXTT13=
EXTT14=
EXTT15=
EXTT16=
EXTT17=
PLAYORDER=
